<svg xmlns="http://www.w3.org/2000/svg" viewBox="28 42 120 100" width="200" height="200">
  <g transform="translate(28,33) scale(0.125)">
    <path d="M 500.8 185.7 C 500.7 186.2 498.5 187.2 496.1 188 C 492.8 189.1 491.2 190.4 489.9 193 C 488.9 194.9 487.7 196.9 487.3 197.5 C 486.3 198.7 486.2 318 487.2 318 C 487.6 318 487.7 318.6 487.4 319.4 C 487.1 320.1 488.1 321.5 489.5 322.4 C 491.1 323.5 491.9 324.7 491.6 325.6 C 491.2 326.6 491.4 326.8 492.2 326.4 C 492.8 326 493.9 326.4 494.5 327.4 C 495.2 328.3 498.1 329.6 500.9 330.3 C 503.7 330.9 506 331.8 506 332.2 C 506 332.7 506.9 333 508 333 C 509.1 333 510 332.5 510 331.9 C 510 331.4 510.8 331 511.8 331.1 C 512.7 331.2 514.8 330.8 516.3 330.2 C 517.9 329.5 519.5 329 519.9 329 C 520.9 329 525 323.4 525 322 C 525 321.5 525.4 321 526 321 C 528.5 321 529 311.5 529 259.3 C 529 225.9 528.6 204.9 528 204.5 C 527.5 204.2 527.3 203.3 527.6 202.6 C 527.9 201.8 527.6 200.9 527.1 200.5 C 526.5 200.2 526.2 199.4 526.5 198.9 C 526.9 198.4 526.6 198 526 198 C 525.4 198 525.2 197.5 525.5 197 C 525.8 196.4 525.7 196 525.2 196 C 524.8 196 523.6 194.4 522.7 192.4 C 521.7 190.5 520.4 189 519.7 189.3 C 519.1 189.5 517.9 189.1 517.2 188.3 C 516.5 187.6 515 187 513.9 187 C 512.9 187 512 186.5 512 186 C 512 184.9 501.3 184.6 500.8 185.7 Z M 779 186.2 C 779 186.6 778.1 187 777.1 187 C 776 187 774.5 187.7 773.6 188.5 C 772.8 189.3 771.5 190 770.7 190 C 770 190 768.8 191.1 768.2 192.5 C 767.6 193.9 766.5 195 765.9 195 C 765.3 195 765 195.9 765.3 197 C 765.6 198.1 765.4 199 764.8 199 C 764.3 199 764.1 200.2 764.5 202 C 764.9 203.9 764.8 205 764 205 C 763.2 205 763 216.2 763.3 246.2 C 763.7 298 764.3 317 765.4 317 C 765.8 317 766 317.7 765.6 318.5 C 765.3 319.3 765.4 320 765.8 320 C 766.2 320 767.4 321.6 768.4 323.4 C 770.3 327 774.5 329.6 780.2 330.6 C 782 331 784.1 331.8 784.8 332.3 C 785.8 333.1 786.4 333 787 332 C 787.4 331.3 788.7 330.9 789.9 331.3 C 791.1 331.6 792 331.4 792 330.9 C 792 330.4 792.9 330 794 330 C 795.1 330 796.3 329.4 796.6 328.6 C 796.9 327.8 797.8 327.4 798.5 327.6 C 799.2 327.9 800.3 326.9 801.1 325.1 C 801.9 323.4 803 322 803.6 322 C 804.2 322 805 320.8 805.3 319.2 C 805.6 317.7 805.7 289.8 805.5 257.1 C 805.2 212.4 804.8 197.5 803.9 197 C 803.3 196.6 803 195.8 803.4 195.2 C 803.7 194.6 803.1 193.9 802 193.5 C 800.9 193.1 799.2 191.8 798.4 190.4 C 797.5 189.1 796.2 188 795.5 188 C 794.7 188 793.5 187.4 792.8 186.7 C 791.4 185.3 779 184.8 779 186.2 Z" fill="#DD2C25"/>
    <path d="M 445.5 241.1 C 445.1 241.7 443.3 241.9 440.9 241.5 C 438.5 241.1 437 241.2 437 241.8 C 437 242.4 436.1 242.6 435 242.3 C 433.9 242 433 242.2 433 242.8 C 433 243.3 431 244.3 428.5 245 C 426 245.7 424 246.7 424 247.2 C 424 247.8 423.3 248 422.5 247.6 C 421.7 247.3 421 247.5 421 248.1 C 421 248.7 420.6 248.8 420 248.5 C 419.5 248.2 419 248.4 419 248.9 C 419 249.5 418.3 250 417.5 250 C 416.6 250 415.7 250.7 415.4 251.5 C 415 252.3 414.4 252.7 413.9 252.4 C 413.4 252.1 411.4 253.5 409.4 255.6 C 407.4 257.6 405.2 259.3 404.6 259.4 C 402.6 259.7 401 261.1 401.5 262 C 402 262.9 397.2 268 395.8 268 C 395.4 268 395.3 268.7 395.6 269.5 C 396 270.3 395.5 271.2 394.6 271.6 C 393.7 271.9 393 272.8 393 273.5 C 393 274.3 392.2 275.6 391.3 276.6 C 390.3 277.6 389.5 278.6 389.4 278.9 C 389.4 279.2 388.8 280.8 388.2 282.3 C 387.5 283.9 387 285.6 387 286.1 C 387 286.6 386.5 287 385.9 287 C 385.3 287 385.1 287.9 385.5 289 C 385.9 290.2 385.7 291 385 291 C 384.2 291 384 291.9 384.4 293.5 C 384.8 295.1 384.6 296 383.9 296 C 383.2 296 383 297.2 383.4 299.5 C 383.8 301.7 383.7 303 383 303 C 382.3 303 382 318.3 382 351 L 382 399 L 912.1 399 L 911.9 349.5 C 911.8 322.3 911.3 300 910.8 300 C 910.4 300 910 299.1 910 297.9 C 910 294.9 906.7 283 905.9 283 C 905.5 283 904.4 280.7 903.5 277.9 C 902.5 275.1 901.2 272.6 900.4 272.3 C 899.6 272 899 271.2 899 270.5 C 899 269.8 898.3 269 897.5 268.6 C 896.7 268.3 896 267.3 896 266.4 C 896 264.5 887.3 256 885.3 256 C 884.6 256 884 255.4 884 254.7 C 884 254.1 882.5 252.9 880.8 252.1 C 879 251.3 876.8 250 875.9 249.1 C 875.1 248.2 871.1 246.6 867.2 245.5 C 863.2 244.5 860 243.2 860 242.7 C 860 242.3 859.1 242.2 858 242.5 C 856.8 242.9 856 242.7 856 242 C 856 241.1 854.9 241 852.4 241.4 C 850.2 241.9 848.3 241.7 847.5 241 C 845.5 239.3 821.5 240.1 819.8 241.8 C 818.8 242.8 818.4 251.4 818.2 280 C 818 304.3 817.6 317 816.9 317 C 816.3 317 816.1 317.9 816.5 319 C 816.8 320.1 816.7 321 816.2 321 C 815.7 321 814.7 322.5 814 324.2 C 813.3 326 812 328.1 811.1 328.8 C 810.2 329.5 809.5 330.8 809.5 331.6 C 809.5 332.5 807.4 334.4 804.8 335.7 C 802.1 337.1 800 338.6 800 339 C 800 339.5 798.3 340.4 796.3 341 C 794.2 341.6 791.8 342.4 791 342.7 C 788.8 343.5 779 343.6 779 342.9 C 779 342.5 777.4 341.9 775.5 341.6 C 773.3 341.1 772.2 340.5 772.6 339.8 C 773.1 339.1 772.8 339 772 339.5 C 771.3 339.9 770.5 339.8 770.1 339.3 C 769.8 338.7 767.6 337.1 765.3 335.6 C 762.9 334.2 761 332.3 761 331.5 C 761 330.7 760.1 329.6 759.1 329 C 758 328.5 756.6 326.4 756 324.5 C 755.4 322.6 754.4 321 753.9 321 C 753.3 321 753.2 320.1 753.5 319 C 753.8 317.9 753.8 317 753.3 317 C 752.9 317 752.6 300.1 752.8 279.6 L 753.1 242.1 L 749.8 241.5 C 748 241.2 743.8 241 740.5 241 C 737.2 241 691.1 241.4 638 241.8 L 541.5 242.5 L 541.5 276 C 541.5 308.1 540.9 318 538.8 318 C 538.3 318 538.2 318.9 538.5 320 C 538.9 321.2 538.7 322 538 322 C 537.4 322 537.2 322.4 537.5 323 C 537.8 323.5 537.6 324 537.1 324 C 536.5 324 536 324.7 536 325.5 C 536 326.3 535.1 327.5 534.1 328.2 C 533.1 328.8 532.4 330 532.7 330.7 C 533 331.4 532.7 332 532 332 C 531.3 332 529.9 333.1 528.8 334.5 C 527.7 335.9 526.2 337 525.4 337 C 524.6 337 523.7 337.7 523.4 338.5 C 523 339.3 522.4 339.8 522 339.5 C 521.5 339.2 520.8 339.5 520.5 340 C 519.6 341.5 514.9 343.4 513.1 343.1 C 512.3 342.9 510.6 343.4 509.3 344.1 C 507.4 345.1 506.5 345.1 505 344.2 C 503.9 343.5 502.2 343 501.1 343 C 498.4 343 491.6 340 490.7 338.4 C 490.3 337.6 489.4 337 488.9 337 C 487.7 337 481.6 330.9 481.5 329.7 C 481.5 329.3 481 328.6 480.4 328.2 C 479.2 327.4 476 320.7 476 319.1 C 476 318.5 475.7 318 475.3 318 C 474.8 318 474.6 300.9 474.8 280 C 475 246.4 474.9 242 473.5 242 C 472.7 242 472 241.5 472 241 C 472 239.6 446.3 239.7 445.5 241.1 Z M 350 291.9 C 350 292.3 348.9 293.3 347.5 294 C 345.6 295 345 296.1 345 298.7 C 345 300.5 345.4 302 345.9 302 C 346.4 302 347 303 347.3 304.1 C 347.7 305.5 348.4 306.1 349.4 305.7 C 350.2 305.4 351 305.6 351.2 306.2 C 351.5 307 352.3 307.1 353.6 306.5 C 354.6 306.1 355.8 305.8 356.3 305.8 C 357.4 306.1 360.9 302.2 360.2 301.5 C 359.8 301.2 360.2 300.5 361 299.9 C 362.3 299.2 362.3 298.9 361.1 298.1 C 360.4 297.6 360 296.6 360.2 295.9 C 361 293.6 357.7 291.2 353.8 291.2 C 351.7 291.2 350 291.5 350 291.9 Z M 325.5 297 C 325.2 297.6 324 298 322.8 298 C 321.4 298 321 298.5 321.3 299.5 C 321.7 300.3 321.5 301.2 321 301.5 C 319.6 302.4 319.7 310 321.1 310 C 321.7 310 322 310.6 321.7 311.4 C 321.1 313 324.1 315.8 325.8 315.2 C 326.5 315 327 315.3 327 315.9 C 327 316.5 328.6 317 330.5 317 C 332.4 317 334 316.5 334 315.9 C 334 315.3 334.6 315 335.4 315.3 C 337.2 316 339 314.2 338.3 312.4 C 338 311.6 338.4 311 339.1 311 C 339.8 311 340 310.7 339.7 310.3 C 339.3 310 339.5 309.1 340.1 308.4 C 341.8 306.3 340.2 301.7 336.8 299.1 C 333.6 296.5 326.6 295.2 325.5 297 Z M 297.5 304 C 297.2 304.6 295.8 304.7 294.4 304.4 C 292.6 303.9 292 304.2 292 305.3 C 292 306.2 290.9 307.7 289.5 308.8 C 288.2 309.9 287.4 311 287.7 311.4 C 288 311.7 287.9 312 287.3 312 C 286.7 312 286.3 314.1 286.3 317 C 286.3 319.7 286.8 322 287.3 322 C 287.8 322 288 322.5 287.8 323.2 C 287 325.6 294 330.4 299.4 331.1 C 302.2 331.4 304.7 331.3 304.8 330.9 C 305 330.4 305.6 330 306.2 330 C 306.7 330 308.6 328.6 310.3 326.9 C 313 324.1 313.4 323 313.4 318.3 C 313.4 315.3 313 312.6 312.5 312.2 C 311.9 311.8 311.5 310.9 311.5 310.2 C 311.5 309.5 310.2 308.1 308.5 307.2 C 306.9 306.3 305.2 305.1 304.9 304.7 C 304.6 304.3 303.6 304.2 302.8 304.5 C 301.9 304.9 300.9 304.7 300.5 304.1 C 299.7 302.7 298.3 302.7 297.5 304 Z M 262.6 319.9 C 262.2 320.5 261.4 320.8 260.9 320.5 C 260.4 320.1 260 320.4 260 321 C 260 321.7 259.5 322 258.8 321.8 C 256.5 321 251 328.1 251 331.9 C 251 333.1 250.6 334 250 334 C 249.5 334 249 335.3 249 337 C 249 338.6 249.4 340 249.9 340 C 250.4 340 251 341.7 251.4 343.8 C 251.8 346.4 252.9 348.3 255 349.8 C 256.6 351.1 258 352.7 258 353.5 C 258 355 259.6 355.5 263.3 355.2 C 264.2 355.1 265 355.5 265 356 C 265 356.6 266.6 357 268.5 357 C 270.4 357 272 356.5 272 355.9 C 272 355.3 272.9 355.1 274 355.5 C 275.1 355.9 276 355.7 276 355.1 C 276 354.5 276.5 354 277.1 354 C 278.6 354 284 348.1 285.1 345.2 C 286.4 341.9 286.2 333.9 284.8 329.9 C 283.6 326.4 278.5 320.8 277.5 321.9 C 277.2 322.2 276.5 321.9 276.1 321.1 C 275 319.4 263.5 318.3 262.6 319.9 Z M 231.8 336 C 229.2 337.6 230 344.5 233.3 347.5 C 236 350 239 350.8 239 349 C 239 348.4 239.8 348 240.9 348 C 243.9 348 245.3 345.4 244.7 340.9 C 244.4 338.7 243.9 336.6 243.6 336.3 C 242.5 335.2 233.5 335 231.8 336 Z M 212.9 351.1 C 211.7 353.4 211.5 358.7 212.4 361.7 C 212.8 363 214.3 364.3 215.8 364.7 C 217.3 365 218.8 365.8 219.2 366.4 C 219.7 367.2 220 367.1 220 366.2 C 220 365.6 220.8 365 221.8 365 C 224.2 365 228 360.9 228 358.3 C 228 355.8 226 350 225.2 349.9 C 224.8 349.8 222.1 349.7 219.2 349.5 C 214.9 349.4 213.7 349.7 212.9 351.1 Z M 239.5 355 C 239.1 355.6 238.4 355.8 237.9 355.5 C 237.4 355.1 237 355.4 237 355.9 C 237 356.5 236.4 357 235.8 357 C 235.1 357 233.6 357.7 232.6 358.5 C 231 359.7 230.6 361.3 230.5 366.5 C 230.5 370.1 230.8 373 231.3 373 C 231.8 373 232 373.7 231.6 374.5 C 231.3 375.3 231.5 376 232 376 C 232.6 376 233 376.7 233 377.5 C 233 380 239.5 382.3 245.3 381.8 C 249.7 381.4 251.2 380.8 253.8 378 C 255.6 376.2 257 373.6 257 372.4 C 257 371.1 257.6 370 258.3 370 C 259.1 370 259.2 369.7 258.4 369.2 C 257.8 368.8 257 366.7 256.7 364.6 C 256 360.5 252.4 356 250.2 356.8 C 249.6 357 249 356.6 249 356 C 249 355.3 248.2 355.1 247 355.5 C 245.9 355.9 245 355.7 245 355.1 C 245 353.7 240.3 353.7 239.5 355 Z M 196.3 370.1 C 193.9 370.7 192 371.5 192 372 C 192 372.5 191.3 372.7 190.5 372.4 C 189.7 372 189 372.3 189 373.1 C 189 373.8 188.8 374.1 188.4 373.8 C 187.6 372.9 179.4 381.4 177.9 384.8 C 177.2 386.5 176.2 387.6 175.6 387.3 C 175.1 387 174.9 387.8 175.2 389.4 C 175.5 390.8 175.3 392 174.9 392 C 174.4 392 174 395.1 174 399 C 174 403.5 174.4 406 175.1 406 C 175.7 406 176 406.7 175.6 407.5 C 175.3 408.3 175.5 409 176 409 C 176.4 409 177.1 410.3 177.5 412 C 177.9 413.6 178.6 415 179.1 415 C 179.7 415 179.9 415.4 179.6 415.9 C 178.9 417 185.9 424.2 187 423.5 C 187.4 423.2 188 423.7 188.3 424.5 C 188.6 425.2 190.5 426.2 192.4 426.6 C 194.4 426.9 196 427.5 196 427.9 C 196 428.2 199.6 428.5 204 428.5 C 208.4 428.5 212 428.2 212 427.8 C 212 427.5 213.3 426.9 214.9 426.5 C 216.5 426.2 218.1 425.2 218.4 424.4 C 218.7 423.5 219.5 423 220.2 423.2 C 221.6 423.7 227.2 418.1 226.5 417 C 226.2 416.6 226.7 416 227.5 415.6 C 228.3 415.3 229 414.4 229 413.5 C 229 412.7 229.5 412 230.1 412 C 230.7 412 231 411.3 230.6 410.5 C 230.3 409.7 230.5 409 231.1 409 C 231.8 409 232 408 231.6 406.5 C 231.2 405.1 231.4 404 232 404 C 232.5 404 233 402 233 399.5 C 233 397 232.5 395 232 395 C 231.4 395 231.2 393.9 231.6 392.5 C 232 390.9 231.8 390 231 390 C 230.3 390 230.1 389.2 230.5 388 C 230.9 386.9 230.7 386 230.1 386 C 229.5 386 229 385.4 229 384.6 C 229 383.8 228.3 383 227.5 382.6 C 226.7 382.3 226 381.3 226 380.4 C 226 378.6 222.2 375.1 220.3 375 C 219.6 375 219 374.5 219 373.9 C 219 373.4 218.6 373.2 218 373.5 C 217.5 373.8 217 373.6 217 373 C 217 372.3 216.3 372 215.5 372.4 C 214.7 372.7 214 372.4 214 371.8 C 214 371.2 213.7 371 213.3 371.3 C 213 371.7 212.2 371.6 211.6 371.1 C 209.8 369.6 200.9 369 196.3 370.1 Z M 163 407.1 C 163 407.7 162.5 408 161.8 407.8 C 160.1 407.2 156 412.3 156 414.9 C 156 416.1 156.4 417 157 417 C 157.5 417 157.7 417.7 157.4 418.5 C 157 419.4 157.7 420.1 159.4 420.6 C 160.8 420.9 162 421.6 162 422 C 162 423.5 166.7 422.4 169.4 420.3 C 171.2 418.9 172 417.3 172 415.2 C 172 410.5 170.1 407.1 167.9 407.7 C 166.9 408 166 407.7 166 407.1 C 166 406.5 165.3 406 164.5 406 C 163.7 406 163 406.5 163 407.1 Z M 383.2 414 C 382.4 415.4 382 421.6 382 435 L 382 454.1 L 404.3 454 C 425.8 453.9 433 454.7 433 457.2 C 433 457.7 433.4 457.9 433.9 457.6 C 435.2 456.8 442.1 464 441.3 465.3 C 441 465.9 441.2 466 441.8 465.6 C 442.5 465.2 443.1 466.3 443.6 468.5 C 443.9 470.4 444.6 472.2 445 472.5 C 445.5 472.8 445.6 473.9 445.3 475 C 445 476.1 445.3 477 445.9 477 C 446.5 477 446.7 478.1 446.4 480 C 446 481.9 446.2 483 446.9 483 C 447.6 483 447.8 483.9 447.4 485.5 C 447.1 486.9 447.2 488 447.8 488 C 448.3 488 449.1 490.7 449.5 494 C 449.9 497.3 450.6 500 451 500 C 451.5 500 451.6 501.6 451.3 503.5 C 451 505.7 451.1 507 451.8 507 C 452.5 507 452.7 508.3 452.3 510.5 C 451.9 512.7 452.1 514 452.9 514 C 453.6 514 453.8 515.5 453.3 518.5 C 453 521.4 453.1 523 453.8 523 C 454.4 523 455.1 527.1 455.5 533 C 455.9 538.5 456.5 543 456.9 543 C 457.6 543 457.4 588.5 456.7 589.7 C 456.4 590.2 455.9 593.5 455.5 597.2 C 455.2 601 454.4 604 453.8 604 C 453.2 604 453 605.1 453.2 606.5 C 453.5 607.9 453.3 609 452.7 609 C 452.2 609 452 609.9 452.3 611 C 452.6 612.1 452.5 613.2 452 613.5 C 451.6 613.7 450.7 616 450.1 618.5 C 449.4 621.5 448.5 622.8 447.8 622.4 C 447.1 621.9 446.9 622.4 447.2 623.8 C 447.6 625 447.4 626 446.9 626 C 446.5 626 446.3 626.7 446.6 627.5 C 447 628.3 446.8 629 446.2 629 C 445.6 629 444.6 630.6 444 632.5 C 443.4 634.4 442.4 636 441.9 636 C 441.3 636 441.2 636.4 441.5 637 C 441.8 637.5 441.6 638 441.1 638 C 440.5 638 439.3 639.8 438.4 641.9 C 437.6 644.1 436.2 646.1 435.4 646.4 C 434.5 646.7 434.2 647.4 434.5 648 C 434.8 648.5 434 649.5 432.6 650.2 C 431.1 650.8 430.1 651.9 430.2 652.6 C 430.5 654 419.7 665 418.1 665 C 417.5 665 416.5 665.9 415.8 666.9 C 415.2 667.9 414 668.6 413.3 668.3 C 412.6 668 412 668.5 412 669.4 C 412 670.3 411.3 671 410.5 671 C 409.6 671 408.7 671.7 408.4 672.5 C 408 673.3 407.3 673.7 406.7 673.3 C 406.2 673 405.2 673.4 404.6 674.2 C 404 675.1 401 676.8 398 678.1 C 395 679.4 391.9 681 391.2 681.7 C 390.5 682.4 389.3 683 388.6 683 C 387.9 683 386.1 684.1 384.6 685.5 L 382 687.9 L 382 736.4 C 382 764.3 382.4 785.1 382.9 785.4 C 383.4 785.7 383.6 786.9 383.3 787.9 C 383 788.9 383.3 790.1 383.8 790.4 C 384.4 790.7 384.6 791.9 384.3 793 C 384 794.2 384.3 795 385.1 795 C 385.8 795 386.1 795.3 385.7 795.6 C 385.4 795.9 386.1 797.3 387.3 798.6 C 388.4 799.9 389.5 801.7 389.6 802.6 C 389.7 803.5 390 804.3 390.2 804.3 C 393.2 805.8 394.7 807 395.5 808.8 C 396.1 810.1 397.5 811.1 399 811.2 C 411.4 811.9 421.1 813.7 422.4 815.5 C 423.1 816.5 424.1 817 424.6 816.7 C 425.2 816.4 426.5 817.5 427.5 819.1 C 428.6 820.7 430 822 430.5 822 C 431.1 822 432.2 823.6 432.9 825.5 C 433.6 827.4 434.6 829 435.1 829 C 435.7 829 435.8 829.9 435.5 831 C 435.1 832.2 435.3 833 436 833 C 436.6 833 436.9 834.2 436.8 835.7 L 436.5 838.5 L 645.8 838.8 C 787.1 838.9 855 838.7 855 838 C 855 837.5 856.8 837 859 837 C 864.2 837 873 835.1 873 833.9 C 873 833.4 874.1 833.2 875.4 833.6 C 877.2 834 878.5 833.4 880.7 831.3 C 882.3 829.7 884.2 828.6 884.8 828.8 C 885.5 829 886.3 828.5 886.6 827.6 C 886.9 826.7 887.8 826 888.5 826 C 889.2 826 891.4 824 893.4 821.6 C 895.4 819.1 898 816.8 899.1 816.5 C 900.4 816.1 900.9 815.3 900.6 814.4 C 900.3 813.6 900.7 812.7 901.5 812.4 C 902.3 812 903 811.2 903 810.5 C 903 809.9 903.9 808.3 905 807 C 906.2 805.7 906.8 804 906.6 803.3 C 906.3 802.6 906.5 802 907 802 C 907.5 802 908.5 799.3 909.2 796 C 909.8 792.7 910.8 790 911.2 790 C 911.6 790 912 704.9 912 601 L 912 412 L 648.3 412 C 386.2 412 384.5 412 383.2 414 Z M 563.5 487.1 C 563.9 487.7 566.9 488 570.4 487.9 C 573.9 487.8 577.1 487.9 577.6 488.2 C 578.1 488.6 580.6 489.1 583.3 489.5 C 585.9 489.9 588 490.7 588 491.2 C 588 491.8 588.9 492 590 491.7 C 591.1 491.4 592 491.6 592 492.2 C 592 492.8 592.9 493 594 492.7 C 595.1 492.4 596 492.5 596 492.9 C 596 493.3 598.3 494.2 601 494.9 C 603.8 495.6 606 496.6 606 497.2 C 606 497.7 606.5 497.8 607 497.5 C 607.6 497.2 608 497.4 608 498 C 608 498.6 608.4 498.8 609 498.5 C 609.5 498.2 611.3 499.3 613 501 C 614.7 502.7 616.4 503.9 616.9 503.6 C 617.4 503.3 618.8 504.6 620.1 506.5 C 621.4 508.4 623 510 623.6 510 C 624.3 510 625 511 625.4 512.2 C 625.7 513.5 627.1 515.8 628.4 517.3 C 629.8 518.9 631.2 521.5 631.5 523.1 C 631.9 524.7 632.5 526 633 526 C 633.4 526 633.6 526.9 633.3 528 C 633 529.1 633.2 530 633.8 530 C 634.4 530 634.6 530.9 634.3 532.1 C 633.9 533.3 634.3 534.6 635.1 535.1 C 637.2 536.3 637.2 573.7 635.1 574.9 C 634.3 575.4 634 576.5 634.3 577.4 C 634.7 578.3 634.5 579 634 579 C 633.5 579 632.8 581 632.4 583.5 C 632.1 586.1 631.2 588.7 630.4 589.4 C 629.7 590.2 629.4 591 629.7 591.4 C 630.1 591.7 629.8 592 629.2 592 C 628.6 592 627.6 593.7 626.9 595.7 C 626.2 597.8 624.9 600.1 623.9 600.8 C 622.9 601.5 622.3 602.7 622.6 603.5 C 623 604.3 622.7 605 622.1 605 C 620.5 605 617.3 608.4 617.7 609.7 C 617.9 610.2 616.5 611.8 614.5 613.1 C 612.5 614.4 609.8 617.4 608.4 619.7 C 607 622.1 605.6 624 605.1 624 C 603.9 624 594 633.9 594 635.2 C 594 636.5 591 640 589.9 640 C 588.6 640 580 649.1 580 650.5 C 580 651.3 577.5 654 574.5 656.5 C 571.5 659.1 569 661.8 569 662.4 C 569 663.1 565 667.5 560 672.2 C 555.1 677 551 681.3 551 682 C 551 682.6 550.5 682.8 549.8 682.4 C 549.1 681.9 549 682.1 549.5 682.9 C 550.3 684.3 545.2 690.3 543.9 689.5 C 543.5 689.2 543.4 689.9 543.7 691 C 544.2 693 545.1 693 593.6 693 L 643 693 L 643 735 L 487 735 L 487 727.5 C 487 722.9 486.6 720 485.9 720 C 485.2 720 485 716.1 485.1 708.5 C 485.3 700.9 485.8 697 486.5 697 C 487.1 697 488.3 695.5 489.2 693.7 C 490.1 691.9 492.4 689.3 494.3 688 C 496.2 686.7 498.6 684.3 499.6 682.6 C 501.3 679.8 503 677.8 515.5 664.9 C 518.8 661.5 521.4 658.1 521.2 657.3 C 521 656.6 521.3 656 521.8 656 C 523.2 656 531.8 647.3 533.4 644.2 C 534.2 642.6 536.9 639.8 539.4 637.9 C 541.8 636 544.5 633.1 545.4 631.3 C 546.2 629.6 548.6 626.9 550.7 625.3 C 555.2 622 557.9 619 558 617.3 C 558 616.7 559.8 614.7 562 613 C 564.2 611.3 565.8 609.5 565.5 609 C 565.2 608.5 566.8 606.6 569.1 604.7 C 571.4 602.7 573 600.7 572.7 600.3 C 572.4 599.8 573.5 598.5 575.1 597.5 C 576.7 596.4 577.8 595 577.6 594.4 C 577.4 593.8 578.1 592.8 579.1 592.2 C 580.1 591.5 581 590.3 581 589.5 C 581 588.7 581.5 588 582.1 588 C 582.6 588 582.9 587.6 582.6 587.1 C 582.3 586.6 582.7 586 583.5 585.7 C 584.2 585.4 585.2 583.5 585.6 581.6 C 585.9 579.6 586.7 578 587.2 578 C 587.8 578 588 577.3 587.6 576.5 C 587.3 575.7 587.5 575 588.1 575 C 588.8 575 589 574 588.6 572.5 C 588.2 571.1 588.4 570 589 570 C 590.3 570 590.3 551.3 589 550.5 C 588.4 550.2 588.3 548.8 588.6 547.4 C 589 545.9 588.8 545 588 545 C 587.3 545 587.1 544.2 587.5 543 C 587.8 541.9 587.7 541 587.1 541 C 586.6 541 585.9 540.1 585.5 539 C 584.7 536.4 578 529.9 576.9 530.6 C 576.4 530.9 576 530.7 576 530.1 C 576 529.5 574.9 528.8 573.5 528.4 C 572.1 528.1 571 527.4 571 526.8 C 571 526.3 570.1 526.2 569 526.5 C 567.9 526.8 567 526.7 567 526.2 C 567 525.8 563.4 525.4 559 525.4 C 554.6 525.5 551 525.8 551 526.3 C 551 526.7 549.9 526.8 548.5 526.4 C 546.8 526 546 526.2 546 527.1 C 546 527.8 545.7 528 545.3 527.7 C 545 527.3 544 527.9 543.3 529 C 542.5 530.1 541.6 530.8 541.2 530.6 C 540.1 529.9 536.9 532.6 536.6 534.4 C 536.5 535.3 535.5 537 534.4 538.3 C 533.3 539.6 532.5 541.1 532.8 541.8 C 533 542.5 532.7 543 532.2 543 C 530.7 543 529.7 547.5 529.1 557 L 528.5 565.5 L 484 565.5 L 484 555.2 C 484 548.4 484.4 545 485.1 545 C 485.8 545 486 543.8 485.6 541.5 C 485.1 539.2 485.3 538 486 538 C 486.7 538 486.9 537.2 486.5 536 C 486.2 534.9 486.3 534 486.7 534 C 487.2 534 488.1 532 488.8 529.5 C 489.5 527 490.5 525 491.1 525 C 491.6 525 491.9 524.6 491.5 524.1 C 491.2 523.6 491.4 522.9 492 522.5 C 492.6 522.1 492.8 521.5 492.5 521 C 492.2 520.6 492.7 520 493.5 519.6 C 494.3 519.3 495 518.4 495 517.5 C 495 516.7 495.7 516 496.6 516 C 497.4 516 498.8 514.4 499.5 512.6 C 500.3 510.7 502.2 508.3 503.6 507.3 C 505 506.3 506.9 504.8 507.9 504 C 508.8 503.2 511.7 501.4 514.3 500.1 C 516.9 498.8 519 497.3 519 496.9 C 519 496.5 520.7 495.6 522.8 494.9 C 524.8 494.3 527 493.4 527.6 492.9 C 528.2 492.4 529 492.3 529.3 492.7 C 529.7 493 530 492.8 530 492.2 C 530 491.6 530.7 491.3 531.5 491.6 C 532.3 492 533 491.7 533 491.2 C 533 490.6 535.5 489.8 538.5 489.5 C 541.5 489.1 544 488.5 544 488.1 C 544 487.8 546.9 487.6 550.4 487.8 C 554 488 557.7 487.7 558.7 487.1 C 561 485.8 562.7 485.7 563.5 487.1 Z M 827 502 C 827 508 827.4 512 828 512 C 828.6 512 829 514 829 516.5 C 829 519.2 828.5 521 827.9 521 C 827.2 521 827 522.1 827.4 524 C 827.7 525.8 827.5 527 826.9 527 C 826.3 527 826.2 527.4 826.5 528 C 826.8 528.5 826.6 529 826.1 529 C 825.5 529 825 529.6 825 530.4 C 825 531.2 824.3 532.6 823.4 533.4 C 822.6 534.3 822.2 535 822.6 535 C 822.9 535 822.7 535.7 822 536.5 C 821.4 537.3 821.1 538.4 821.5 539 C 821.8 539.5 821.7 540 821.2 540 C 820.6 540 819.6 542 818.9 544.5 C 818.2 547 817.2 549 816.7 549 C 816.3 549 816.2 549.4 816.5 550 C 816.8 550.5 816.7 551 816.1 551 C 815.5 551 815.3 551.7 815.6 552.5 C 816 553.3 815.7 554 815.1 554 C 814.6 554 813.5 555.8 812.9 558 C 812.2 560.2 811.3 562 810.9 562 C 810.4 562 810.3 562.7 810.6 563.5 C 811 564.3 810.7 565 810.2 565 C 809.6 565 808.6 566.6 807.9 568.5 C 807.2 570.4 806.3 572 805.8 572 C 805.4 572 805.3 572.7 805.6 573.5 C 806 574.3 805.7 575 805.1 575 C 804.5 575 804.3 575.7 804.6 576.5 C 805 577.3 804.7 578 804 578 C 803.4 578 803.2 578.4 803.5 579 C 803.8 579.5 803.7 580 803.2 580 C 802.6 580 801.9 581.1 801.6 582.5 C 801.2 583.9 800.6 585 800.1 585 C 799.6 585 798.4 587.4 797.6 590.4 C 796.7 593.4 795.3 596.6 794.5 597.4 C 793.6 598.2 792.1 601.8 790.9 605.4 C 789.8 609 788.5 612 788 612 C 787.5 612 786.3 614.5 785.4 617.5 C 784.4 620.5 783.2 623 782.8 623 C 782.3 623 782.2 623.4 782.5 624 C 782.8 624.5 782.7 625 782.1 625 C 781.6 625 780.4 627.5 779.5 630.5 C 778.7 633.5 777.5 636 777 636 C 776.5 636 776.3 636.7 776.6 637.5 C 777 638.3 776.7 639 776.2 639 C 775.6 639 774.6 640.6 773.9 642.5 C 773.2 644.4 772.3 646 771.8 646 C 771.4 646 771.3 646.7 771.6 647.5 C 772 648.3 771.7 649 771.1 649 C 770.5 649 770.3 649.7 770.6 650.5 C 771 651.3 770.7 652 770 652 C 769.4 652 769.2 652.4 769.5 653 C 769.8 653.5 769.7 654 769.2 654 C 768.6 654 767.9 655.1 767.6 656.5 C 767.2 657.9 766.5 659 765.9 659 C 765.3 659 765.2 659.4 765.5 660 C 765.8 660.5 765.6 661 764.9 661 C 764.3 661 764 661.8 764.3 663 C 764.6 664.1 764.5 665 764 665 C 763.6 665 762.6 667 761.9 669.5 C 761.2 672 760.2 674 759.7 674 C 759.3 674 759.2 674.4 759.5 675 C 759.8 675.5 759.6 676 759 676 C 758.4 676 758.1 676.4 758.5 676.9 C 758.8 677.4 758.6 678.1 758 678.5 C 757.5 678.8 756.6 680.9 756 683 C 755.4 685.2 754.5 687 753.9 687 C 753.3 687 753.1 687.4 753.5 687.9 C 753.8 688.4 753.6 689.1 753 689.5 C 752.5 689.8 751.6 691.9 751 694 C 750.4 696.2 749.5 698 748.9 698 C 748.3 698 748.2 698.4 748.5 699 C 748.8 699.5 748.6 700 747.9 700 C 747.3 700 747 700.8 747.3 702 C 747.6 703.1 747.5 704 747.1 704 C 746.7 704 745.8 705.6 745.1 707.5 C 744.4 709.4 743.5 711 743.1 711 C 742.6 711 741.2 714.3 739.9 718.2 C 738.7 722.2 737.3 725.7 736.9 726 C 736.4 726.3 735.5 728.3 734.8 730.5 L 733.5 734.5 L 707.7 734.8 L 681.9 735 L 682.6 732.8 C 682.9 731.5 683.7 730.3 684.1 730.2 C 684.6 730 684.8 729.4 684.4 728.9 C 684.1 728.4 684.4 728 685 728 C 685.7 728 686 727.3 685.6 726.5 C 685.3 725.7 685.5 725 686 725 C 686.5 725 687.2 723.9 687.6 722.5 C 687.9 721.1 688.6 720 689.2 720 C 689.7 720 689.8 719.5 689.5 719 C 689.2 718.4 689.3 718 689.9 718 C 690.5 718 691.7 715.5 692.5 712.5 C 693.4 709.5 694.5 707 695 707 C 695.5 707 695.6 706.3 695.3 705.3 C 694.9 704.2 695 703.9 695.8 704.4 C 696.6 704.9 696.8 704.6 696.4 703.6 C 696.1 702.7 696.3 702 697 702 C 697.6 702 697.8 701.5 697.5 701 C 697.2 700.4 697.3 700 697.8 700 C 698.4 700 699.1 698.9 699.4 697.5 C 699.8 696.1 700.5 695 701 695 C 701.5 695 701.7 694.3 701.4 693.5 C 701 692.7 701.3 692 702 692 C 702.6 692 702.8 691.5 702.5 691 C 702.2 690.4 702.3 690 702.7 690 C 703.2 690 704.2 688.4 704.9 686.5 C 705.6 684.6 706.5 683 707 683 C 707.5 683 707.7 682.3 707.4 681.5 C 707 680.7 707.2 680 707.8 680 C 708.4 680 709.4 678.4 710 676.5 C 710.6 674.6 711.5 673 712 673 C 712.4 673 713.8 670.3 715 667 C 716.2 663.8 717.5 661 718 660.8 C 718.9 660.4 723.4 650.8 723.2 649.7 C 723.1 649.3 723.4 649 723.9 649 C 724.4 649 725.5 646.7 726.5 643.8 C 727.4 640.9 728.8 638.1 729.5 637.5 C 730.2 637 731.5 634.1 732.5 631.2 C 733.4 628.4 734.6 626 735 626 C 735.5 626 735.7 625.3 735.4 624.5 C 735 623.7 735.3 623 736 623 C 736.6 623 736.8 622.5 736.5 622 C 736.2 621.4 736.3 621 736.7 621 C 737.2 621 738.2 619.4 738.9 617.5 C 739.6 615.6 740.5 614 741 614 C 741.5 614 741.7 613.3 741.4 612.5 C 741 611.7 741.3 611 742 611 C 742.6 611 742.8 610.5 742.5 610 C 742.2 609.4 742.3 609 742.8 609 C 743.4 609 744.1 607.9 744.4 606.5 C 744.8 605.1 745.5 604 746 604 C 746.5 604 746.7 603.3 746.4 602.5 C 746 601.7 746.3 601 747 601 C 747.6 601 747.8 600.5 747.5 600 C 747.2 599.4 747.3 599 747.7 599 C 748.2 599 749.2 597.4 749.9 595.5 C 750.6 593.6 751.5 592 752 592 C 752.5 592 753.6 589.7 754.5 587 C 755.4 584.2 756.6 582 757.2 582 C 757.8 582 758.1 581.7 757.7 581.4 C 757.4 581 757.7 580.2 758.4 579.4 C 759.2 578.7 760.4 576.1 761.1 573.6 C 761.8 571 762.8 569 763.3 569 C 763.7 569 763.9 568.6 763.5 568.1 C 763.2 567.6 763.4 566.9 764 566.5 C 764.6 566.1 764.8 565.4 764.5 564.9 C 764.1 564.4 764.3 564 764.7 564 C 765.2 564 766.2 562.4 766.9 560.5 C 767.6 558.6 768.5 557 769 557 C 769.5 557 769.7 556.3 769.4 555.5 C 769 554.7 769.2 554 769.8 554 C 770.4 554 771.6 551.5 772.5 548.5 C 773.5 545.5 774.7 543 775.2 543 C 775.7 543 775.8 542.5 775.5 542 C 775.2 541.4 775.3 541 775.7 541 C 776.2 541 777.2 539.4 777.9 537.5 C 778.6 535.6 779.6 534 780.1 534 C 780.6 534 781 533.3 781 532.5 C 781 531.1 777.8 531 753.8 531.5 C 738.8 531.7 712.7 532.2 695.8 532.5 L 665 533.1 L 665 492 L 827 492 L 827 502 Z M 172 425 C 172 425.5 171.2 426 170.2 426 C 166.8 426 162.2 429 161 432 C 160.3 433.6 159.4 434.7 158.9 434.4 C 158.4 434.1 158.3 434.6 158.6 435.4 C 158.9 436.3 158.7 437 158 437 C 157.3 437 157.1 437.8 157.5 439 C 157.9 440.1 157.7 441 157.1 441 C 156.5 441 156 443.1 156 446 C 156 448.7 156.4 451 156.9 451 C 157.4 451 157.6 451.9 157.3 453 C 157 454.1 157.3 455 157.9 455 C 158.5 455 158.9 455.3 158.8 455.7 C 158.4 457 165.4 463.5 166.8 463.2 C 167.4 463 168 463.4 168 464 C 168 464.6 168.5 464.8 169 464.5 C 169.6 464.2 170 464.4 170 464.9 C 170 466.3 181.7 466.4 182.5 465 C 182.9 464.4 183.6 464.2 184.1 464.6 C 184.7 464.9 186 464.3 187.1 463.1 C 188.2 461.9 189.8 461 190.6 461 C 191.4 461 191.9 460.6 191.5 460 C 191.2 459.5 191.8 458.2 193 457 C 194.1 455.9 195 454.3 195 453.5 C 195 452.7 195.4 452 195.9 452 C 196.4 452 196.8 449.1 196.8 445.5 C 196.8 441.9 196.4 439 196 439 C 195.6 439 194.9 437.8 194.6 436.4 C 193.7 432.8 187.6 427.1 184 426.4 C 182.4 426 181 425.4 181 424.9 C 181 424.4 179 424 176.5 424 C 174 424 172 424.4 172 425 Z M 208.5 434 C 208.1 434.6 207.4 434.8 206.9 434.4 C 204.8 433.1 202.1 437.1 202.2 441.4 C 202.4 447.1 204.3 449 210 449 C 214.9 449 217 447.7 217 444.8 C 217 443.8 217.5 443 218 443 C 218.6 443 219 442.3 219 441.5 C 219 440.7 218.6 440 218.2 440 C 217.8 440 216.9 438.6 216.3 436.9 C 215.5 434.7 214.6 433.9 213.6 434.3 C 212.7 434.7 211.8 434.5 211.5 434 C 210.7 432.7 209.3 432.7 208.5 434 Z M 140.2 450.3 C 138.5 452.1 137 454.1 137 454.7 C 137 455.4 136.6 456 136 456 C 135.5 456 135 456.9 135 458 C 135 459.1 135.4 460 135.9 460 C 136.4 460 137.1 461.3 137.5 462.9 C 138 465.1 138.9 466 141.1 466.5 C 142.7 466.9 144 467.6 144 468.1 C 144 468.6 144.9 469 146 469 C 147.1 469 148 468.5 148 468 C 148 467.4 148.9 467 150 467 C 151.1 467 152 466.4 152 465.6 C 152 464.8 152.7 464 153.5 463.6 C 154.3 463.3 155 462.4 155 461.5 C 155 460.7 155.5 460 156 460 C 156.6 460 157 459.1 157 458 C 157 456.9 156.6 456 156 456 C 155.5 456 155 455.4 155 454.7 C 155 452.5 148.3 447 145.8 447.1 C 144.5 447.1 142 448.5 140.2 450.3 Z M 198.9 459.7 C 198.2 460.9 197.3 462 196.8 462 C 196.3 462 196.2 462.4 196.5 463 C 196.8 463.5 196.6 464 196.1 464 C 194.9 464 194.6 470.3 195.7 471.4 C 196.1 471.8 196.5 472.9 196.5 473.8 C 196.5 477.8 208.8 479.1 213.6 475.6 C 216.4 473.5 216.3 462.9 213.5 460.2 C 212.4 459.2 210.9 458.5 210.2 458.8 C 209.6 459 209 458.8 209 458.3 C 209 457.9 207 457.5 204.6 457.4 C 200.9 457.3 200 457.7 198.9 459.7 Z" fill="#DD2C25"/>
    <path d="M 284.3 462.9 C 283.1 463.9 282.4 465 282.7 465.4 C 283.1 465.7 282.9 466 282.3 466 C 281.7 466 280.6 468 279.9 470.5 C 279.2 473 278.2 475 277.7 475 C 277.2 475 277.2 475.9 277.5 477 C 277.9 478.2 277.7 479 277 479 C 276.2 479 276 479.9 276.4 481.5 C 276.8 483.1 276.6 484 275.9 484 C 275.3 484 275 484.9 275.3 486 C 275.6 487.1 275.5 488 275 488 C 274.6 488 273.9 490.5 273.5 493.5 C 273.2 496.5 272.4 499 271.8 499 C 271.2 499 271 500 271.4 501.5 C 271.8 503.1 271.6 504 270.9 504 C 270.2 504 269.9 505.2 270.2 507 C 270.5 508.6 270.3 510 269.9 510 C 269.5 510 268.9 513.8 268.5 518.5 C 268.1 523.2 267.3 527 266.7 527 C 266.1 527 266 529 266.4 532.4 C 266.8 535.7 266.6 538.1 266 538.5 C 265.4 538.9 265 544.1 265.1 551.3 C 265.2 564.7 265.1 567.1 265 577.7 C 265 581.8 265.4 585 265.9 585 C 266.5 585 266.6 586.5 266.3 588.5 C 266 590.6 266.2 592 266.8 592 C 267.3 592 268.1 594.5 268.5 597.5 C 268.8 600.5 269.5 603.2 270 603.5 C 270.5 603.8 270.7 604.7 270.4 605.4 C 270.1 606.2 270.3 607.1 270.8 607.4 C 271.3 607.7 271.5 609.2 271.2 610.6 C 270.9 612.3 271.1 613.1 271.7 612.7 C 272.4 612.3 273.5 614.6 274.6 618.6 C 275.6 622.3 277.5 626.5 279.1 628.3 C 280.6 630 281.6 631.8 281.4 632.2 C 281.1 632.7 281.6 633.3 282.4 633.6 C 283.3 633.9 284 634.8 284 635.6 C 284 636.3 285 637.6 286.2 638.4 C 287.4 639.3 288.1 640.2 287.8 640.6 C 287.1 641.2 296 650 297.2 650 C 297.6 650 299.2 651.8 300.6 654 C 302.1 656.2 303.9 658 304.7 658 C 305.5 658 307.2 659.2 308.5 660.6 C 309.8 662 311.5 663.3 312.2 663.4 C 314.3 663.8 319.4 666.4 320.9 667.8 C 321.6 668.5 322.9 668.9 323.6 668.6 C 324.4 668.3 325 668.4 325 668.8 C 325 669.3 326.6 670.2 328.5 671 C 330.4 671.8 332 673 332 673.8 C 332 674.6 332.6 675 333.4 674.7 C 335.9 673.7 340.3 679.8 343.9 689.3 C 344.5 690.8 345.4 692 345.9 692 C 346.4 692 347.1 693.1 347.4 694.5 C 347.8 695.9 348.4 697 348.9 697 C 349.4 697 349.6 697.9 349.3 699 C 349 700.1 349.3 701 349.9 701 C 350.4 701 350.7 701.7 350.4 702.5 C 350 703.3 350.3 704 350.9 704 C 351.7 704 351.9 705.1 351.4 707.5 C 351 709.8 351.2 711 351.9 711 C 352.7 711 353 721.7 353 748.5 C 353 775.3 352.7 786 351.9 786 C 351.2 786 351 787 351.4 788.5 C 351.8 790.1 351.6 791 350.9 791 C 350.3 791 350 791.7 350.4 792.5 C 350.7 793.3 350.6 794 350.1 794 C 349.6 794 348.7 795.5 347.9 797.3 C 347.2 799 346 800.9 345.3 801.3 C 344.6 801.8 344.2 802.5 344.5 803 C 345.1 803.9 338 811.3 337.2 810.5 C 336.9 810.2 336.1 810.9 335.3 812 C 334.5 813.1 333.3 814 332.6 814 C 331.9 814 329.6 815.1 327.6 816.5 C 325.6 817.9 322.8 819.3 321.5 819.6 C 320.1 819.9 319 820.6 319 821.1 C 319 821.6 318.3 821.7 317.5 821.4 C 316.7 821 316 821.3 316 822 C 316 822.7 315.2 822.9 314 822.5 C 312.9 822.2 312 822.3 312 822.8 C 312 823.3 309.3 824.3 306 825 C 302.7 825.7 299.7 826.7 299.4 827.2 C 299.1 827.7 298 827.8 296.9 827.5 C 295.8 827.1 295 827.3 295 827.9 C 295 828.5 294.4 828.9 293.8 828.7 C 292.9 828.6 292.4 830.2 292.2 833.8 L 291.9 839 L 358.9 839 L 426 838.9 L 426 835.9 C 426 834.3 425.6 833 425.1 833 C 424.6 833 424 831.6 423.6 829.9 C 423.1 827.2 422.6 826.8 420.5 827.2 C 419.1 827.5 418 827.4 418 827 C 418 826.7 415.1 825.8 411.5 825.1 C 407.9 824.4 405 823.4 405 822.8 C 405 822.3 404.1 822.2 403 822.5 C 401.9 822.8 401 822.7 401 822.1 C 401 821.6 398.5 820.4 395.5 819.5 C 392.5 818.7 390 817.5 390 816.9 C 390 816.3 389.6 816.2 389 816.5 C 388.5 816.8 388 816.6 388 816 C 388 815.4 387.3 814.7 386.4 814.3 C 383.7 813.3 372.8 801.5 373.7 800.6 C 374.1 800.3 373.8 800 373.1 800 C 372.4 800 372 799.4 372.3 798.6 C 372.6 797.8 372.5 797 372 796.8 C 371.4 796.6 370.5 794.1 369.8 791.3 C 369.1 788.4 368.3 786 368 786 C 367.7 786 367.6 772.2 367.8 755.3 C 368 738.5 367.8 724 367.4 723.1 C 366.3 720.6 366.2 718 367.2 717.3 C 367.8 717 368.1 714.5 367.9 711.6 C 367.8 708.8 367.9 705.8 368.2 705 C 368.6 704.2 369.4 701.4 370 698.7 C 370.7 696.1 371.7 694 372.2 694 C 372.7 694 372.8 693.1 372.5 692 C 372.1 690.9 372.3 690 372.9 690 C 373.5 690 374.7 687.7 375.7 685 C 376.7 682.2 378 680 378.7 680 C 379.4 680 380 679.5 380 679 C 380 676.9 380.2 676.5 381.8 674.7 C 382.6 673.7 384 673.2 384.7 673.4 C 385.4 673.7 386 673.4 386 672.7 C 386 672 387.6 670.8 389.5 670 C 391.4 669.2 393 668.2 393 667.8 C 393 667.3 393.5 667.2 394 667.5 C 394.6 667.8 395 667.7 395 667.3 C 395 666.8 396.6 665.8 398.5 665.1 C 400.4 664.4 402 663.4 402 662.9 C 402 662.4 402.6 662 403.3 662.2 C 404.6 662.5 406.5 661.2 410.5 657.2 C 411.7 656 413.1 655 413.6 655 C 415.2 655 424.8 645.4 425.1 643.4 C 425.3 642.4 426.5 641.1 427.8 640.5 C 429 640 429.8 639.1 429.7 638.5 C 429.5 638 430.4 636.2 431.6 634.7 C 432.9 633.1 434 631.2 434 630.4 C 434 629.6 434.5 629 435.1 629 C 435.6 629 435.8 628.5 435.5 628 C 435.2 627.4 435.3 627 435.9 627 C 436.5 627 437.5 625.2 438.1 623 C 438.8 620.9 439.7 619.3 440.1 619.6 C 440.6 619.9 440.7 619.4 440.4 618.6 C 440.1 617.7 440.3 617 440.9 617 C 441.6 617 442 616.4 441.9 615.7 C 441.8 615.1 442.2 613.2 442.8 611.7 C 443.5 610.1 444 608.2 444 607.4 C 444 606.6 444.5 606 445.1 606 C 445.7 606 445.9 605.1 445.5 604 C 445.1 602.8 445.3 602 446.1 602 C 446.8 602 447 601 446.7 599 C 446.3 597.1 446.5 596 447.2 596 C 447.9 596 448.1 594.4 447.8 591.5 C 447.5 589 447.6 586.7 448.1 586.4 C 449.3 585.7 449.3 545.3 448.1 544.6 C 447.6 544.3 447.4 541.3 447.7 538 C 448.1 533.9 447.9 532 447.2 532 C 446.4 532 446.2 530.5 446.7 527.5 C 447.1 524.4 446.9 523 446.1 523 C 445.3 523 445.2 521.7 445.6 519 C 446 516.3 445.9 515 445.1 515 C 444.5 515 444 513.5 444 511.6 C 444 509.7 443.6 507.9 443.2 507.6 C 442.7 507.3 442.5 505.7 442.8 504 C 443 502.2 442.8 501 442.1 501 C 441.5 501 441.3 499.9 441.7 498 C 442 496.1 441.8 495 441.1 495 C 440.4 495 440.2 494.1 440.6 492.5 C 440.9 491.1 440.8 490 440.3 490 C 439.7 490 438.7 486.8 438 483 C 437.3 479.1 436.3 476 435.9 476 C 435.5 476 435.4 475.1 435.7 474 C 436 472.9 435.8 472 435.3 472 C 434.7 472 434.5 470.8 434.8 469.2 C 435 467.7 434.9 466.8 434.5 467.3 C 434 467.7 433 466.6 432.3 464.9 C 431.4 462.8 430.5 462 429.5 462.3 C 428.7 462.7 427.8 462.5 427.5 462 C 427.1 461.4 400.3 461 356.7 461 C 290 461.1 286.4 461.2 284.3 462.9 Z M 408.5 469 C 408.8 469.5 412.7 470 417.2 470 C 423.9 470 425.1 470.2 424.6 471.5 C 424.3 472.3 424.5 473 424.9 473 C 425.4 473 426.6 476.1 427.6 480 C 428.6 483.8 429.8 487 430.2 487 C 430.7 487 430.8 488.1 430.4 489.5 C 430 491 430.2 492 430.8 492 C 431.4 492 432.2 494.5 432.5 497.5 C 432.9 500.5 433.6 503 434 503 C 434.4 503 434.5 504.1 434.3 505.4 C 434 506.7 434.3 508.1 434.9 508.4 C 435.5 508.8 435.7 510.4 435.3 512 C 435 513.9 435.2 515 435.9 515 C 436.7 515 436.8 516.3 436.4 519 C 436 521.5 436.1 523 436.8 523 C 437.9 523 438.9 531.1 438.9 540.3 C 438.9 543.4 439.2 546.5 439.6 547.1 C 440.4 548.4 440.4 582.8 439.7 585 C 439.4 585.8 438.8 589.5 438.5 593.2 C 438.1 597 437.4 600 436.9 600 C 436.3 600 436.2 600.9 436.5 602 C 436.8 603.1 436.7 604 436.3 604 C 435.8 604 434.6 606.7 433.6 610 C 432.6 613.3 431.5 616 431.1 616 C 430.4 616 426 625.3 426 626.9 C 426 627.5 425.3 628 424.4 628 C 423.4 628 423 628.6 423.3 629.4 C 423.6 630.2 423.2 631.1 422.4 631.4 C 421.6 631.7 421 632.5 421 633.2 C 421 633.9 420.1 635.1 419 635.8 C 417.9 636.5 417 637.6 417 638.2 C 417 639.8 408.9 648 407.3 648 C 406.6 648 405.5 648.9 404.8 649.9 C 404.2 650.9 403 651.6 402.3 651.3 C 401.6 651 401 651.5 401 652.4 C 401 653.3 400.3 654 399.5 654 C 398.7 654 397.1 654.9 396 656 C 394.8 657.2 393.5 657.8 393 657.5 C 392.4 657.1 392 657.3 392 657.8 C 392 658.7 387 661.5 385.8 661.2 C 385.3 661.1 385 661.4 385 662 C 385 662.5 384.3 662.7 383.5 662.4 C 382.7 662 382 662.3 382 663 C 382 663.7 381.2 663.9 379.9 663.5 C 378.5 663 377.4 663.3 376.9 664.1 C 375.7 666.1 339.3 666.1 338.1 664.2 C 337.7 663.5 336.6 663.2 335.7 663.6 C 334.7 664 334 663.7 334 663 C 334 662.3 333.3 662 332.5 662.4 C 331.7 662.7 331 662.5 331 661.9 C 331 661.3 330.3 661 329.5 661.4 C 328.7 661.7 328 661.5 328 661 C 328 660.6 326.4 659.6 324.5 659 C 322.6 658.4 321 657.4 321 656.9 C 321 656.4 319.8 655.4 318.3 654.7 C 316.7 654.1 314.9 652.8 314.2 651.8 C 313.5 650.9 312.4 650.3 311.7 650.5 C 311.1 650.8 309.7 649.7 308.6 648.2 C 307.6 646.7 305.4 644.6 303.8 643.7 C 302.1 642.7 300.6 641.2 300.3 640.2 C 300.1 639.2 298.6 637.6 297 636.5 C 295.4 635.4 294.4 634.2 294.7 633.7 C 294.9 633.3 294 631.8 292.7 630.4 C 291.3 629 289.8 626.5 289.5 624.9 C 289.1 623.2 288 621.1 287 620.2 C 286.1 619.3 284.7 616.8 284.1 614.7 C 283.4 612.7 282.4 611 281.8 611 C 281.2 611 281 610.3 281.4 609.5 C 281.7 608.7 281.5 608 281 608 C 280.5 608 279.8 606.4 279.4 604.5 C 279.1 602.6 278.4 601 278 601 C 277.5 601 277.4 600.2 277.7 599.1 C 278 598.1 277.7 596.9 277.2 596.6 C 276.6 596.3 276.4 595.1 276.7 594 C 277 592.9 276.8 592 276.3 592 C 275.7 592 275.5 589.9 275.8 587 C 276.1 583.7 275.9 582 275.1 582 C 274.3 582 274 576.4 274 563 C 274 549.5 274.3 544 275.1 544 C 275.9 544 276.1 542.1 275.7 538 C 275.4 534.2 275.6 532 276.2 532 C 276.9 532 277.1 530.3 276.8 527.5 C 276.5 525 276.7 523 277.2 523 C 277.7 523 278 521.5 277.9 519.7 C 277.7 517.9 277.9 516 278.2 515.5 C 278.5 514.9 279.1 511.5 279.5 507.7 C 279.8 504 280.6 501 281.2 501 C 281.8 501 282 499.8 281.7 498 C 281.3 496.1 281.5 495 282.1 495 C 282.7 495 283 494.1 282.7 493 C 282.4 491.9 282.6 490.7 283.2 490.4 C 283.7 490.1 284 488.9 283.7 487.9 C 283.4 486.8 283.6 486 284.1 486 C 284.6 486 285 484.9 285 483.6 C 285 482.3 285.7 480.7 286.5 480 C 287.4 479.3 287.8 478 287.5 477.3 C 287.2 476.5 287.6 475.2 288.3 474.5 C 288.9 473.7 290.4 471.9 291.5 470.5 L 293.5 468 L 350.7 468 C 387.8 468 408.1 468.4 408.5 469 Z" fill="#DD2C25"/>
    <path d="M 299 521.3 C 299 521.8 297.7 521.9 296 521.5 C 294.3 521.1 293 521.3 293 521.8 C 293 522.3 291.2 523 289 523.4 C 285.5 523.9 284.9 524.4 284.3 527 C 284 528.7 283.3 530 282.7 530 C 282.1 530 281.9 532.1 282.3 535.5 C 282.6 538.6 282.5 541 281.9 541 C 281.2 541 280.8 549 281 566 L 281 578.2 C 281 582.5 281.4 586 281.9 586 C 282.5 586 282.6 587.6 282.3 589.5 C 281.9 591.9 282.1 593 282.9 593 C 283.8 593 283.9 594 283.5 596.1 C 283 598.1 283.1 599 283.8 598.6 C 284.4 598.3 285.1 599.7 285.5 602 C 285.9 604.2 286.6 606 287.1 606 C 287.5 606 287.7 606.7 287.4 607.5 C 287 608.3 287.2 609 287.8 609 C 288.4 609 288.6 609.9 288.3 611 C 288 612.1 288.2 613 288.7 613 C 289.3 613 290.5 614.8 291.5 617 C 292.5 619.2 293.6 621 294 621 C 294.3 621 295.4 622.8 296.4 625.1 C 297.4 627.3 299.5 630.3 301.1 631.8 C 302.7 633.2 304 634.8 304 635.3 C 304 636.6 308.3 641 309.7 641 C 310.3 641 311.7 642.1 312.8 643.5 C 313.9 644.8 315.1 645.6 315.4 645.2 C 315.8 644.8 316.6 645.3 317.1 646.3 C 317.7 647.2 318.8 648 319.5 648 C 320.3 648 321 648.7 321 649.6 C 321 650.6 321.6 651 322.5 650.6 C 323.3 650.3 324 650.5 324 651 C 324 651.5 324.7 651.7 325.5 651.4 C 326.3 651 327 651.3 327 652 C 327 652.6 327.5 652.8 328 652.5 C 328.6 652.2 329 652.3 329 652.9 C 329 653.4 330.4 654.1 332 654.5 C 333.7 654.9 335 655.6 335 656.1 C 335 656.7 335.9 656.8 337 656.5 C 338.2 656.1 339 656.3 339 657 C 339 657.7 339.7 657.9 340.7 657.6 C 341.6 657.2 342.7 657.5 343.1 658.2 C 344.3 660.1 372.7 660.1 373.9 658.2 C 374.3 657.5 375.4 657.2 376.3 657.6 C 377.3 657.9 378 657.7 378 657 C 378 656.3 378.8 656.1 380 656.5 C 381.1 656.8 382 656.7 382 656.3 C 382 655.8 384.5 654.6 387.6 653.6 C 390.6 652.6 393.4 651.2 393.7 650.4 C 394 649.6 394.8 649 395.5 649 C 396.1 649 397.9 647.9 399.4 646.5 C 400.9 645.1 402.5 644 403 644 C 404.5 644 414 634.2 414 632.6 C 414 631.7 414.7 630.7 415.5 630.4 C 416.3 630 417 629.2 417 628.4 C 417 627.6 417.4 627 418 627 C 418.5 627 419.7 625.4 420.6 623.5 C 421.5 621.6 422.6 620 423 620 C 423.5 620 424.6 617.6 425.6 614.7 C 426.5 611.9 427.8 609.2 428.4 608.8 C 429 608.3 429.1 608 428.5 608 C 428 608 428.1 607.6 428.7 607.2 C 429.4 606.8 430.1 604.6 430.3 602.4 C 430.5 600.1 431.1 597.7 431.6 596.9 C 432.1 596.1 432.7 584.5 432.8 571.1 C 433.1 550.9 433 546.9 431.8 547.6 C 431.1 548.1 429.5 548.3 428.3 548.1 C 427 548 426 548.3 426 548.9 C 426 549.6 424.6 549.8 422 549.4 C 419.3 549 418 549.1 418 549.9 C 418 550.6 415.8 551 412 551 C 408.2 551 406 550.6 406 549.9 C 406 549.1 404.8 548.9 402.5 549.3 C 400.6 549.6 398.8 549.5 398.5 549.1 C 398.3 548.6 395.3 547.7 392 547 C 388.7 546.3 385.6 545 385.1 544.2 C 384.6 543.3 383.6 543 382.7 543.3 C 381.8 543.6 380.8 543.5 380.5 542.9 C 380.1 542.4 379.4 542.2 378.9 542.5 C 378.4 542.9 378 542.7 378 542.2 C 378 541.6 376.9 540.9 375.5 540.6 C 374.1 540.2 373 539.5 373 538.9 C 373 538.3 372.6 538.2 372 538.5 C 371.5 538.8 371 538.7 371 538.1 C 371 537.6 369.4 536.6 367.5 536 C 365.6 535.4 363.4 534.3 362.7 533.6 C 362 532.9 358.4 531.3 354.7 530.1 C 351 528.8 348 527.4 348 526.8 C 348 526.2 347.1 526 346 526.3 C 344.9 526.6 344 526.4 344 525.9 C 344 525.5 341.3 524.5 338 523.8 C 334.7 523.2 332 522.2 332 521.7 C 332 521.2 330.7 521.1 329 521.5 C 327.4 521.9 326 521.8 326 521.3 C 326 520.8 319.9 520.5 312.5 520.5 C 305.1 520.5 299 520.8 299 521.3 Z M 158.5 469.1 C 158.1 469.7 156.6 469.8 154.9 469.5 C 153 469.1 152 469.2 152 470 C 152 470.8 151.1 471 149.5 470.6 C 148.1 470.2 147 470.4 147 471 C 147 471.5 144.9 472.5 142.4 473.1 C 139.9 473.8 137.6 474.9 137.3 475.6 C 137 476.4 136.2 477 135.5 477 C 134.8 477 133.9 477.7 133.6 478.6 C 133.3 479.4 132.6 479.9 132.1 479.5 C 131.1 478.9 122.6 486.9 123.4 487.7 C 123.6 488 123.1 489 122.2 490 C 118.9 493.6 118.4 494.6 118.8 495.8 C 119 496.4 118.7 497 118 497 C 117.4 497 117.2 497.4 117.5 498 C 117.8 498.5 117.7 499 117.1 499 C 116.5 499 115.5 501.7 114.8 505 C 114.2 508.3 113.3 511 112.9 511 C 112.1 511 112.1 528.3 113 529 C 113.3 529.3 114.4 533.1 115.5 537.4 C 116.6 541.8 118.2 546.1 119.2 546.9 C 120.2 547.8 121 549 121 549.8 C 121 550.5 121.6 551.3 122.4 551.6 C 123.2 551.9 123.7 552.7 123.4 553.4 C 123.2 554 124.3 555.3 125.9 556.3 C 127.6 557.3 129.9 559.4 131 561 C 132.2 562.7 133.7 564 134.5 564 C 135.2 564 136 564.6 136.3 565.4 C 136.6 566.2 138.5 567.3 140.4 568 C 142.4 568.6 144 569.6 144 570.1 C 144 570.7 144.9 570.8 146 570.5 C 147.2 570.1 148 570.3 148 571 C 148 571.7 148.7 571.9 149.6 571.6 C 150.5 571.2 151.9 571.5 152.6 572.1 C 153.4 572.7 154.9 573 156 572.7 C 157.1 572.4 158.3 572.6 158.6 573.1 C 159.3 574.3 168.7 574.3 169.5 573.1 C 169.8 572.6 171.6 572.4 173.5 572.7 C 175.6 573 177 572.9 177 572.2 C 177 571.7 177.9 571.4 179 571.7 C 180.2 572 181 571.7 181 571 C 181 570.3 181.7 570 182.5 570.4 C 183.3 570.7 184 570.6 184 570.2 C 184 569.7 185.6 568.8 187.5 568.1 C 189.4 567.4 191 566.4 191 565.8 C 191 565.3 191.6 565 192.4 565.3 C 193.2 565.6 194.3 564.8 195 563.5 C 195.7 562.1 196.7 561.3 197.1 561.6 C 198.1 562.2 205 555.8 205 554.4 C 205 553.9 206.1 552.2 207.5 550.6 C 208.8 549.1 210.4 546.1 211.1 544.1 C 211.8 542.1 212.8 540.2 213.3 539.8 C 213.9 539.5 214.4 537.6 214.4 535.6 C 214.5 533.6 214.8 532 215.3 532 C 215.7 532 216 527.7 216 522.5 C 216 516.7 215.6 513 215 513 C 214.4 513 214.2 511.9 214.6 510.5 C 215 508.9 214.8 508 214 508 C 213.3 508 213.1 507.2 213.5 506 C 213.9 504.9 213.7 504 213.1 504 C 212.5 504 212 503.3 212 502.5 C 212 500.4 208.8 494 207.7 494 C 207.2 494 207 493.4 207.3 492.6 C 207.6 491.8 207.1 491 205.9 490.7 C 204.9 490.4 204 489.3 204 488.3 C 204 486.4 199.1 482 197.1 482 C 196.5 482 195.6 481.1 195 480 C 194.4 478.9 193.5 478 193 478 C 192.4 478 191.2 477.2 190.2 476.2 C 189.2 475.2 185.9 473.8 182.7 473.1 C 179.6 472.3 177 471.3 177 470.8 C 177 470.3 176.1 470.2 175 470.5 C 173.8 470.9 173 470.7 173 470 C 173 469.2 171.9 469 169.5 469.4 C 167.3 469.8 166 469.7 166 469 C 166 467.7 159.3 467.7 158.5 469.1 Z M 124 567 C 124 567.5 123.3 568 122.5 568 C 121.6 568 120.7 568.7 120.4 569.5 C 120 570.3 119.1 571 118.3 571 C 117.2 571 117 571.7 117.4 573.4 C 117.7 574.8 117.5 576.2 117 576.5 C 116.2 577 116.2 577.6 117 578.5 C 117.6 579.2 117.8 580.5 117.4 581.4 C 117.1 582.3 117.2 583 117.6 583 C 118.1 583 119.9 584.2 121.5 585.8 C 128.4 592.1 138 587.8 138 578.4 C 138 572.5 136.6 569.4 133.6 568.6 C 132.2 568.3 131 567.5 131 567 C 131 566.4 129.4 566 127.5 566 C 125.6 566 124 566.4 124 567 Z M 202 566.9 C 202 567.4 200.6 568 198.9 568.4 C 195.2 569.1 189.6 574.5 190.4 576.5 C 190.7 577.3 190.4 578 189.8 578 C 189.1 578 188.9 579.9 189.2 583.5 C 189.6 588.2 190.2 589.4 193.6 592.7 C 197.3 596.3 197.8 596.5 204.3 596.5 C 209.9 596.5 211.4 596.1 212.6 594.6 C 213.3 593.5 215 591.5 216.3 590.1 C 217.6 588.6 218.5 586.9 218.2 586.2 C 218 585.5 218.3 585 218.9 585 C 219.5 585 220 583.4 220 581.5 C 220 579.6 219.6 578 219 578 C 218.5 578 218 577.4 218 576.6 C 218 574.1 212.6 569.1 209.2 568.4 C 207.4 568 206 567.4 206 566.9 C 206 566.4 205.1 566 204 566 C 202.9 566 202 566.4 202 566.9 Z M 156 582.1 C 156 582.8 154.9 582.9 153 582.5 C 151 582.1 150 582.2 150 583 C 150 583.7 149.2 583.9 148 583.5 C 146.7 583.1 145.3 583.6 143.8 584.9 C 142.6 586.1 141.1 587 140.6 587 C 140 587.1 138.2 588.8 136.5 591 C 134.9 593.1 132.5 595.4 131.3 596.1 C 130.1 596.7 129.3 597.7 129.6 598.2 C 129.9 598.6 129.6 599 129 599 C 128.3 599 128 599.7 128.4 600.5 C 128.7 601.3 128.5 602 128 602 C 127.5 602 126.8 603.6 126.4 605.5 C 126.1 607.4 125.4 609 124.9 609 C 124.4 609 124.3 610.3 124.7 612 C 125 613.9 124.8 615 124.1 615 C 123.5 615 123 616.7 123 619 C 123 621.3 123.5 623 124.1 623 C 124.8 623 125 624.2 124.6 626.5 C 124.2 628.4 124.3 630 124.8 630 C 125.3 630 126.2 631.8 126.9 634 C 127.5 636.2 128.6 638 129.1 638 C 129.7 638 130 638.6 129.7 639.4 C 129.4 640.2 130.2 641.3 131.7 642.1 C 133 642.8 135.1 644.7 136.2 646.2 C 137.2 647.7 138.8 649 139.6 649 C 140.4 649 141 649.5 141 650.1 C 141 650.6 141.5 650.8 142 650.5 C 142.6 650.2 143 650.4 143 651 C 143 651.7 143.6 652 144.4 651.7 C 145.2 651.4 146 651.6 146.2 652.2 C 146.7 653.6 163.1 654.6 165.7 653.5 C 166.7 653 168.1 652.8 168.8 652.9 C 169.4 653 170 652.6 170 652 C 170 651.3 170.8 651.1 172 651.5 C 173.2 651.9 174 651.7 174 651 C 174 650.3 174.7 650.1 175.6 650.4 C 176.4 650.7 176.9 650.6 176.6 650.2 C 176.4 649.8 177.6 648.8 179.3 648.1 C 183.2 646.4 189 641.1 189 639.3 C 189 638.5 189.6 637.7 190.4 637.4 C 191.2 637.1 191.6 636.2 191.3 635.4 C 191 634.6 191.3 634 192 634 C 192.6 634 192.8 633.5 192.5 633 C 192.2 632.4 192.4 632 192.9 632 C 193.5 632 194.3 630.2 194.6 628 C 195 625.8 195.6 624 196.1 624 C 196.6 624 197 620.8 197 617 C 197 613.1 196.7 610 196.2 610 C 195.8 610 194.9 607.7 194.2 604.8 C 193.6 602 192.2 598.9 191.3 597.9 C 190.3 596.9 187.9 594.4 186 592.3 C 184.1 590.2 181.9 588.6 181.3 588.8 C 180.6 589 180 588.6 180 588 C 180 587.4 178.7 586.4 177 585.9 C 175.4 585.3 174 584.4 174 583.8 C 174 583.3 173.1 583.2 172 583.5 C 170.8 583.9 170 583.7 170 583 C 170 582.2 169.1 582 167.5 582.4 C 166.1 582.8 165 582.6 165 582 C 165 581.5 163 581 160.5 581 C 157.9 581 156 581.5 156 582.1 Z M 218 600.6 C 218 601.2 216.3 602 214.3 602.3 C 210.5 603 205 607.8 205 610.6 C 205 611.4 204.7 612 204.3 612 C 203.8 612 203.5 614.5 203.4 617.5 C 203.4 620.5 203.7 623 204.1 623 C 204.5 623 205.1 624.4 205.5 626 C 205.9 627.7 207.3 629.8 208.8 630.8 C 210.3 631.7 211.7 632.7 212 633 C 212.8 633.9 226 633.7 226 632.8 C 226 632.4 227.3 631.4 228.8 630.6 C 233.3 628.3 235.8 616.1 232.8 610.7 C 232.1 609.5 231.5 607.9 231.4 607.1 C 231.1 605.5 228.9 603.9 227.9 604.5 C 227.6 604.8 226.4 604.1 225.4 603.2 C 224.4 602.2 222.7 601.6 221.6 601.8 C 220.6 602 219.4 601.6 218.9 600.8 C 218.4 600.1 218 600 218 600.6 Z M 200.5 638.4 C 196 639.8 189.5 645.4 190.5 647 C 190.8 647.5 190.6 648 190.1 648 C 189.5 648 188.7 649.8 188.4 652 C 188 654.2 187.4 656 186.9 656 C 186.4 656 186 656.9 186 658 C 186 659.1 186.4 660 186.9 660 C 187.4 660 188 661.8 188.4 664 C 188.7 666.2 189.5 668 190.1 668 C 190.6 668 190.8 668.5 190.5 669 C 190.1 669.6 191.4 671.5 193.4 673.3 C 198.9 678.3 199.4 678.6 201.3 678.2 C 202.2 678 203 678.3 203 678.9 C 203 679.5 205 680 207.5 680 C 210.1 680 212 679.5 212 678.9 C 212 678.3 212.7 678 213.5 678.4 C 214.3 678.7 215 678.6 215 678.1 C 215 677.6 216.2 676.9 217.7 676.6 C 220.7 675.8 225.8 670.8 225.2 669.1 C 225 668.5 225.3 668 226 668 C 226.6 668 226.8 667.5 226.5 667 C 226.2 666.4 226.3 666 226.8 666 C 228.4 666 229.1 657.5 227.9 652.6 C 227.3 650.1 226.3 648 225.8 648 C 225.3 648 225.1 647.6 225.4 647.1 C 226.2 645.9 220.1 639.8 218.9 640.6 C 218.4 640.9 218 640.7 218 640.2 C 218 639.1 210.3 637 206.8 637.1 C 205.5 637.1 202.7 637.7 200.5 638.4 Z M 236.3 640.1 C 234.5 641.3 233 642.8 233 643.6 C 233 644.4 232.5 645 231.9 645 C 231.4 645 231.2 645.4 231.5 646 C 231.8 646.5 231.6 647 231.1 647 C 230.5 647 230 648.8 230 651 C 230 653.2 230.5 655 231.1 655 C 231.6 655 231.8 655.5 231.5 656 C 231.2 656.6 231.6 657.7 232.4 658.6 C 233.3 659.4 234.4 660.8 234.8 661.7 C 235.9 663.6 248 664.7 248 662.9 C 248 662.3 248.5 662 249.2 662.2 C 250.9 662.8 255.1 658.1 256.1 654.6 C 256.6 652.9 256.7 650 256.4 648.2 C 255.6 644.2 250.6 638.6 248.5 639.4 C 247.7 639.7 247 639.5 247 639 C 247 637.2 239.6 638 236.3 640.1 Z M 165 657.8 C 165 658.3 163.2 659.2 160.9 659.9 C 157.7 660.9 156.5 661.9 155.3 664.8 C 154.5 666.8 153.5 668.7 153.1 669 C 152.3 669.6 152.3 681 153.1 681 C 153.5 681 154.1 682.1 154.4 683.5 C 155.1 686.2 158.5 690.2 161.5 691.7 C 164.7 693.4 171.7 694.3 172.4 693.1 C 172.8 692.5 173.7 692.3 174.4 692.6 C 175.2 692.9 176.1 692.7 176.4 692.1 C 176.8 691.5 177.7 691.3 178.5 691.7 C 179.4 692 180 691.6 180 690.6 C 180 689.7 180.7 689 181.5 689 C 182.4 689 183.4 688.2 183.7 687.2 C 184.1 686.3 185 684.9 185.7 684.2 C 186.3 683.5 186.7 682.3 186.4 681.5 C 186 680.7 186.3 680 186.9 680 C 188.3 680 188.4 671.4 187 670.5 C 186.4 670.1 186.2 669.4 186.5 668.9 C 186.9 668.4 186.6 668 186 668 C 185.3 668 185 667.5 185.2 666.8 C 185.9 664.9 180.7 660.1 177.2 659.4 C 175.4 659 174 658.4 174 657.9 C 174 657.4 172 657 169.5 657 C 167 657 165 657.4 165 657.8 Z M 242.7 671.7 C 242.3 672.3 240.9 672.5 239.5 672.2 C 238.1 672 237 672.2 237 672.8 C 237 673.4 236.1 673.6 235 673.3 C 233.9 673 233 673.2 233 673.8 C 233 674.4 232.1 674.6 231 674.3 C 229.9 674 229 674.2 229 674.8 C 229 675.3 227.4 676.5 225.5 677.4 C 223.6 678.3 222 679.5 222 680.1 C 222 680.7 221.6 680.9 221.1 680.5 C 220 679.9 212 687.8 212 689.6 C 212 690.2 211.3 691.1 210.4 691.4 C 209.5 691.8 209 692.3 209.3 692.6 C 209.6 693 209.2 693.9 208.4 694.7 C 207.6 695.5 206.5 698.1 205.9 700.6 C 205.3 703 204.4 705 203.9 705 C 203.4 705 203.2 706.1 203.6 707.5 C 204 709 203.8 710 203.1 710 C 202.4 710 202 713.1 202 719 C 202 724.4 202.4 728 203 728 C 203.6 728 203.8 729.1 203.4 730.5 C 203.1 731.9 203.2 733 203.8 733 C 204.3 733 205.3 735.2 206 737.9 C 206.6 740.6 208 743.6 209.1 744.6 C 210.1 745.5 211 746.9 211 747.6 C 211 748.4 211.9 749.5 212.9 750.2 C 213.9 750.8 214.6 751.9 214.3 752.6 C 214 753.4 214.9 754.2 216.4 754.6 C 217.8 754.9 219.6 756.3 220.5 757.6 C 221.4 759 222.5 759.8 223 759.5 C 223.5 759.2 225 759.8 226.2 760.9 C 227.4 762.1 229.2 763 230.2 763 C 231.2 763 232 763.4 232 764 C 232 764.5 232.7 764.7 233.5 764.4 C 234.3 764 235 764.3 235 765 C 235 765.7 235.8 766 237 765.7 C 238.1 765.4 239.3 765.6 239.6 766.1 C 240.3 767.3 254.7 767.2 255.5 766 C 255.8 765.4 257.2 765.3 258.6 765.6 C 260.1 766 261 765.8 261 765 C 261 764.3 261.8 764.1 263 764.5 C 264.1 764.8 265 764.7 265 764.2 C 265 763.6 266.1 762.9 267.5 762.6 C 268.9 762.2 270 761.5 270 760.9 C 270 760.3 270.5 760.2 271.2 760.6 C 271.8 761 272.9 760.5 273.7 759.5 C 274.4 758.4 275 758 275 758.4 C 275 759.2 284.2 749.8 287.3 745.8 C 288.3 744.5 289.6 741.8 290.2 739.8 C 290.8 737.7 291.7 736 292.1 736 C 292.6 736 292.7 735.3 292.4 734.5 C 292 733.7 292.3 733 293 733 C 293.8 733 293.9 732 293.5 730 C 293.1 728.1 293.2 727 293.9 727 C 294.6 727 295 724.2 295 719.5 C 295 715.1 294.6 712 294 712 C 293.4 712 293.2 710.9 293.6 709.5 C 294 707.9 293.8 707 293 707 C 292.3 707 292.1 706.2 292.5 705 C 292.8 703.9 292.7 703 292.2 703 C 291.7 703 290.9 701.4 290.6 699.4 C 290.2 697.5 289.1 695.1 288.2 694.1 C 287.3 693.2 285.6 690.8 284.6 689 C 282.4 685.2 278.1 681.1 276.3 681 C 275.6 681 275 680.5 275 680 C 275 679.4 273.2 678.2 271 677.3 C 268.8 676.3 267 675.2 267 674.8 C 267 674.4 266.3 674.3 265.5 674.6 C 264.7 675 264 674.7 264 674 C 264 673.3 263.2 673 262 673.3 C 261 673.6 260 673.4 259.8 672.9 C 259.4 671.6 243.4 670.5 242.7 671.7 Z M 179.3 694.5 C 178 695.4 177 696.8 177 697.6 C 177 698.4 176.6 699 176 699 C 175.5 699 175 701 175 703.5 C 175 706 175.5 708 176.1 708 C 176.6 708 177.6 709.3 178.1 710.9 C 178.8 712.9 179.6 713.7 180.6 713.3 C 181.4 713 182 713.2 182 713.8 C 182 714.4 184 714.8 186.5 714.8 C 189 714.7 191 714.3 191 713.7 C 191 713.2 191.7 713 192.5 713.4 C 193.3 713.7 193.9 713.4 193.7 712.8 C 193.6 712.1 194.5 711.1 195.8 710.5 C 197.5 709.8 197.9 708.9 197.5 707.3 C 197.2 706.1 197.5 704.8 198 704.5 C 198.8 704 198.8 703.4 198.1 702.6 C 197.5 701.9 197.3 700.4 197.7 699.2 C 198.1 697.6 197.8 697 196.7 697 C 195.8 697 194.7 696.2 194.2 695.3 C 192.8 692.9 182.3 692.3 179.3 694.5 Z M 304 715.2 C 304 715.7 303.4 716 302.8 716 C 299.8 716.1 298.7 718 298.5 723.4 C 298.4 726.5 298.7 729 299.2 729 C 299.7 729 300 729.6 299.8 730.2 C 299.2 731.9 303.5 734 307.5 734 C 312.3 734 317.2 732 316.6 730.4 C 316.3 729.6 316.4 729 316.9 729 C 317.3 729 317.7 727 317.7 724.5 C 317.7 722 317.2 720 316.7 720 C 316.2 720 316 719.3 316.4 718.5 C 316.7 717.5 316.1 716.8 314.5 716.4 C 313.1 716.1 312 715.5 312 715.1 C 312 714.8 310.2 714.5 308 714.5 C 305.8 714.5 304 714.8 304 715.2 Z M 332.8 723.2 C 331.2 723.7 330 724.8 330 725.6 C 330 726.4 329.7 727 329.2 727 C 328.8 727 328.4 728.8 328.4 731 C 328.3 733.2 328.6 735 329.1 735 C 329.6 735 330 735.6 330 736.2 C 330 737.7 334.5 740 337.3 740 C 338.3 740 340.7 739.3 342.6 738.4 C 345.9 736.8 346.1 736.5 345.8 731.9 C 345.6 729.2 345.2 727 344.8 727 C 344.4 727 344.3 726.4 344.6 725.6 C 344.9 724.7 344 723.8 341.9 723.1 C 338.1 721.8 336.5 721.8 332.8 723.2 Z M 307 742 C 307 742.5 306.3 742.7 305.5 742.4 C 304.7 742 304 742.3 304 743 C 304 743.7 303.2 744 302 743.7 C 300.9 743.4 300 743.6 300 744 C 300 744.5 298.5 745.6 296.6 746.5 C 294.8 747.4 292.7 749.3 291.9 750.8 C 291.2 752.3 289.7 754.3 288.7 755.4 C 287.6 756.4 287 758.1 287.3 759.1 C 287.6 760.2 287.4 761 286.8 761 C 286.3 761 286 761.8 286.1 762.7 C 286.2 763.7 286 765.3 285.5 766.3 C 284.5 768.7 285.7 780.4 287 780.8 C 287.6 781 287.8 781.6 287.4 782.1 C 287.1 782.6 287.4 783 288 783 C 288.7 783 289 783.7 288.6 784.5 C 288.3 785.3 288.5 786 289 786 C 289.6 786 290 786.4 290 787 C 290 788.5 297.5 795.7 299.9 796.5 C 301.1 796.8 302 797.5 302 798 C 302 798.5 302.7 798.7 303.5 798.4 C 304.3 798 305 798.3 305 799 C 305 799.8 305.9 800 307.5 799.6 C 308.9 799.2 310 799.4 310 800 C 310 801.3 317.7 801.3 318.5 800 C 318.8 799.4 320.2 799.3 321.6 799.6 C 323 800 324 799.8 324 799.1 C 324 798.5 324.7 798.3 325.5 798.6 C 326.3 799 327 798.8 327 798.2 C 327 797.7 328.1 796.9 329.5 796.6 C 332.5 795.8 338.8 789.8 338.2 788.2 C 338 787.5 338.3 787 339 787 C 339.6 787 339.8 786.5 339.5 786 C 339.2 785.4 339.3 785 339.9 785 C 340.4 785 341.1 783.6 341.5 782 C 341.9 780.3 342.5 779 342.8 779 C 343.2 779 343.5 775.2 343.5 770.5 C 343.5 765.8 343.2 762 342.8 762 C 342.5 762 341.9 760.6 341.5 759 C 341.1 757.3 340.4 756 339.9 756 C 339.4 756 339.1 755.7 339.2 755.2 C 339.6 753.6 334.8 747.1 333.6 747.6 C 332.8 747.9 332 747.4 331.7 746.6 C 331.3 745.7 330.4 745 329.6 745 C 328.8 745 328 744.5 327.8 743.9 C 327.6 743.2 326 742.7 324.2 742.6 C 322.4 742.6 321 742.2 321 741.7 C 321 741.3 317.9 741 314 741 C 310.2 741 307 741.4 307 742 Z M 261.8 769.8 C 258.6 771.7 257.5 775.8 258.3 782.6 C 258.8 787.6 260.7 789.6 265.8 790.6 C 267.5 790.9 269 791.6 269 792.1 C 269 792.6 269.7 793 270.5 793 C 271.3 793 272 792.6 272 792.1 C 272 791.7 273.4 790.9 275.2 790.4 C 277.6 789.7 278.7 788.6 279.4 786.2 C 279.9 784.4 280.7 783 281.1 783 C 281.6 783 282 781.6 282 780 C 282 778.3 281.6 777 281 777 C 280.5 777 280 776.3 280 775.3 C 280 774.4 278.6 772.4 276.8 770.8 C 274.3 768.6 272.7 768 269.1 768 C 266.6 768 263.3 768.8 261.8 769.8 Z" fill="#DD2C25"/>
  </g>
</svg>

